PathFileType	4	(X/Y/Z)	s05c0101.trc
DataRate	CameraRate	NumFrames	NumMarkers	Units	OrigDataRate	OrigDataStartFrame	OrigNumFrames
200	200	4	50	mm	200	1000	2000
Frame#	Time	racr			lacr			c7			jug			rlel			rdr			llel			ldr			s2			lic			ric			lasi			rasi			rpsi			lpsi			rgt			lgt			rth1			rth2			rth3			rth4			rlfc			rmfc			rsh1			rsh2			rsh3			rsh4			rlmal			rmmal			rcal			rtoe			rmt5			lth1			lth2			lth4			lth3			llfc			lmfc			lsh1			lsh2			lsh3			lsh4			llmal			lmmal			lcal			ltoe			lmt5			SBIKE			LBIKE			RBIKE			
		X1	Y1	Z1	X2	Y2	Z2	X3	Y3	Z3	X4	Y4	Z4	X5	Y5	Z5	X6	Y6	Z6	X7	Y7	Z7	X8	Y8	Z8	X9	Y9	Z9	X10	Y10	Z10	X11	Y11	Z11	X12	Y12	Z12	X13	Y13	Z13	X14	Y14	Z14	X15	Y15	Z15	X16	Y16	Z16	X17	Y17	Z17	X18	Y18	Z18	X19	Y19	Z19	X20	Y20	Z20	X21	Y21	Z21	X22	Y22	Z22	X23	Y23	Z23	X24	Y24	Z24	X25	Y25	Z25	X26	Y26	Z26	X27	Y27	Z27	X28	Y28	Z28	X29	Y29	Z29	X30	Y30	Z30	X31	Y31	Z31	X32	Y32	Z32	X33	Y33	Z33	X34	Y34	Z34	X35	Y35	Z35	X36	Y36	Z36	X37	Y37	Z37	X38	Y38	Z38	X39	Y39	Z39	X40	Y40	Z40	X41	Y41	Z41	X42	Y42	Z42	X43	Y43	Z43	X44	Y44	Z44	X45	Y45	Z45	X46	Y46	Z46	X47	Y47	Z47	X48	Y48	Z48	X49	Y49	Z49	X50	Y50	Z50	
1000	5.0000	444.098246	1344.673188	-184.652162	433.688407	1327.824672	-434.089599	400.468449	1411.906083	-317.636732	370.685244	1252.441158	-297.715177	499.339057	1110.223465	-45.225731	687.681304	938.941633	-101.160896	469.504332	1072.961555	-569.338630	680.708277	919.891632	-488.599707	-128.281271	1162.269956	-276.521016	6.207971	1181.981652	-424.085318	12.429983	1205.058788	-137.616546	59.804480	1134.362761	-391.741697	64.517589	1148.047410	-163.618294	-99.221701	1218.351057	-240.452531	-101.422947	1214.524649	-326.125575	-10.182780	1064.124815	-109.137073	-40.093600	1075.311273	-446.300388	85.022628	980.908514	-97.160259	161.919692	936.418760	-98.502233	204.597417	859.743161	-107.291563	186.827468	962.519333	-110.040751	311.354182	754.624558	-134.537681	294.017687	747.484422	-242.207058	269.192045	652.178869	-105.447784	280.837017	564.788817	-115.183093	250.994786	484.457598	-115.968169	309.802082	563.674371	-141.773054	236.624178	350.983561	-123.003189	247.950483	369.876657	-204.819373	168.299447	313.518300	-166.923373	465.156697	308.581850	-157.306133	363.911417	281.042926	-93.861367	76.828427	991.685304	-459.274421	160.414765	970.826651	-456.360666	178.763299	1000.280553	-441.415763	224.498716	906.878887	-458.746621	327.585324	800.913519	-424.999512	307.182715	787.733087	-318.455507	233.461561	718.145952	-452.959769	187.394245	645.339416	-438.912512	109.457409	602.717880	-440.477006	209.543146	624.998128	-414.938306	26.892496	521.188680	-437.019807	60.222341	520.216842	-359.543347	-41.293738	534.420084	-392.164336	144.489458	305.274144	-404.057676	50.516207	367.266535	-463.107302	-265.860187	895.548721	-285.868468	-53.389082	78.961655	-475.214715	-53.421556	79.087655	-77.552526	
1001	5.0050	445.713465	1345.645123	-184.893295	432.732607	1327.919160	-435.339712	400.733516	1412.617339	-318.981997	370.831302	1253.154083	-298.377883	501.131892	1111.428968	-46.088284	688.387328	938.618913	-101.450561	468.498472	1072.100628	-568.680157	679.908371	920.354135	-487.396307	-127.454389	1162.825573	-273.216903	5.407802	1183.687931	-421.585864	14.258351	1204.730035	-134.955541	59.644476	1136.399619	-389.805893	65.988418	1147.418191	-161.657322	-98.110960	1218.544974	-236.221067	-101.639821	1215.188311	-322.245552	-9.579239	1062.431892	-107.527718	-39.882298	1078.180548	-444.453808	84.185430	977.591308	-95.476509	159.899002	930.585891	-97.517503	200.158428	852.964745	-106.114408	185.400279	956.308652	-108.476569	304.364604	745.195607	-133.090107	286.650552	738.005276	-240.428667	262.620156	642.617608	-103.721723	275.367043	555.424765	-113.834842	246.479862	474.620856	-115.084093	304.304236	554.798105	-140.359862	234.237884	341.236873	-122.795155	245.418279	360.095349	-204.463591	165.810214	304.266387	-166.763752	462.768922	297.166717	-157.303803	361.221417	270.319465	-93.816902	77.694937	996.290076	-458.726878	161.645268	977.288055	-456.195987	179.441008	1006.960353	-440.781171	227.150729	914.788091	-459.490926	332.514458	810.275884	-426.582925	315.207013	798.533080	-319.700576	238.047416	727.907525	-453.859316	191.551295	655.308218	-439.725170	113.400281	613.216314	-440.994608	213.778477	634.748248	-415.941971	30.236196	531.974474	-437.199097	64.647618	531.293475	-359.772508	-38.016508	545.024459	-391.805910	147.514275	315.853853	-404.143705	53.669507	377.778502	-462.965816	-266.069910	895.624438	-285.351365	-53.384076	79.032731	-475.201484	-53.392215	79.094360	-77.542521	
1002	5.0100	447.019457	1346.672764	-185.867205	431.712150	1328.047424	-436.300489	401.019371	1413.292871	-320.273319	370.911203	1253.978223	-299.100495	502.978897	1112.601546	-47.058864	689.214375	938.285137	-101.806563	467.564247	1071.336813	-568.258351	679.983276	920.508903	-487.175814	-126.503853	1163.392676	-269.800973	4.545850	1185.552374	-419.109702	16.642330	1204.448959	-132.359339	59.426581	1138.446678	-387.924913	67.608334	1146.941577	-159.705072	-97.624281	1219.478134	-231.627797	-100.718307	1216.635992	-318.873050	-8.898822	1060.847022	-105.987200	-39.580866	1081.275111	-442.662090	83.266715	974.367716	-93.849472	157.543897	926.116468	-96.156134	195.461870	846.289857	-104.684201	183.847705	950.121955	-106.771305	296.601519	736.022812	-131.784404	278.734368	728.842738	-238.789958	256.024805	633.425819	-102.220347	269.459111	546.417484	-112.535318	241.394339	465.209462	-113.943386	298.338454	546.018835	-138.779294	231.242807	331.853211	-122.335785	242.459369	350.499739	-204.080227	163.503295	294.507802	-167.316666	459.624907	285.905257	-157.272297	357.950751	259.829223	-93.756986	78.534735	1001.364109	-458.031193	162.886459	984.130781	-455.957906	180.044935	1013.987787	-440.229093	229.489056	922.893590	-459.523695	337.230054	820.068733	-428.251858	317.888579	805.809339	-321.504661	242.700752	737.861071	-454.853181	196.041249	665.466458	-440.740673	117.576217	623.773063	-441.565556	218.215289	644.748662	-417.067568	33.930399	542.444357	-437.372752	67.535238	541.751783	-360.060385	-34.208769	555.771516	-392.043994	151.287402	326.471161	-404.219456	57.419313	388.364739	-463.009115	-265.991278	895.473677	-284.121378	-53.365494	79.087343	-475.167973	-53.386807	79.129262	-77.520648	
1003	5.0150	448.080863	1347.453340	-187.062533	430.859145	1328.262217	-437.292995	401.248559	1414.083806	-321.500306	370.952796	1254.769315	-299.729545	505.095631	1113.768178	-48.097121	690.071869	937.925216	-102.239894	466.672521	1070.758778	-567.706332	680.546169	921.026681	-486.997982	-125.433969	1164.163989	-265.952489	3.557365	1187.347955	-416.443247	19.140125	1204.136282	-130.316566	59.095158	1140.735320	-386.023332	69.305190	1146.530699	-157.919053	-96.137894	1219.848630	-227.955733	-100.246483	1217.745549	-314.864264	-8.154348	1059.422542	-104.397195	-39.320969	1084.549343	-440.871905	82.283531	971.338672	-92.260283	154.890486	920.255410	-94.333656	190.406095	839.800429	-103.235860	181.994714	943.882596	-105.312304	289.224766	726.980386	-130.882353	270.322247	719.938790	-237.399646	249.152724	624.517070	-100.611530	263.182545	537.661707	-111.182131	235.714309	456.283081	-112.684325	292.132244	537.617588	-137.533959	227.673521	322.637112	-121.857075	238.708857	341.428825	-203.481944	159.797693	286.113866	-166.760762	455.933015	274.750113	-157.269187	354.051501	249.629687	-93.624411	79.373655	1006.788840	-457.225415	164.084098	991.313997	-455.651220	180.652127	1021.389924	-439.570442	231.928611	931.511839	-459.995758	341.758526	830.117016	-429.996249	324.286387	815.446676	-322.749564	247.380572	748.004340	-455.885298	200.480515	675.720581	-441.610315	121.900682	634.311516	-442.145450	222.811971	654.975369	-418.114581	37.913138	552.693093	-437.482246	71.424605	552.066236	-360.246988	-30.118116	565.934662	-392.265975	155.817486	337.161923	-404.270153	61.743123	398.758821	-462.993297	-266.068021	895.598229	-283.976823	-53.345806	79.172461	-475.150605	-53.350106	79.119593	-77.486190	
